<svg width="789" height="481" viewBox="0 0 789 481" fill="none" xmlns="http://www.w3.org/2000/svg">
<g opacity="0.1">
<path d="M178.918 136.65L164.831 0H0L32.836 313.16C62.742 243.88 113.188 182.92 178.918 136.65Z" fill="#323537"/>
<path d="M779.115 0.410034H621.827C630.52 52.6 628.989 105.72 617.302 157.45C596.736 262.48 552.59 343.44 518.315 338.27C509.746 336.98 502.617 330.42 497.064 319.7C494.117 307.86 490.655 296.42 486.782 285.46C459.362 209.96 407.709 157.02 340.667 146.91C336.245 146.24 331.79 145.79 327.335 145.52C208.194 138 87.408 268.09 53.1329 444.48C50.8479 456.08 49.0189 467.58 47.6479 479H212.171C212.742 475.76 213.347 472.52 213.986 469.28C234.552 364.25 278.698 283.28 312.973 288.45C322.742 289.93 330.625 298.26 336.452 311.85C338.508 319.6 340.794 327.15 343.307 334.5C370.179 413.02 422.723 468.55 491.479 478.91H492.403C615.451 496.73 743.674 363.73 779.115 181.27C791.225 121.46 791.225 60.23 779.115 0.410034Z" fill="#323537"/>
</g>
</svg>
